<?xml version="1.0" encoding="UTF-8"?>
<svg id="Shield" xmlns="http://www.w3.org/2000/svg" width="81.13" height="81.13" viewBox="0 0 81.13 81.13">
  <defs>
    <style>
      .cls-1 {
        fill: #e80000;
      }

      .cls-2 {
        fill: #fff;
      }
    </style>
  </defs>
  <rect class="cls-1" width="81.13" height="81.13" rx="16.39" ry="16.39"/>
  <g>
    <polygon class="cls-2" points="40.57 14.34 17.77 29.15 17.77 32.1 63.36 32.24 63.36 29.15 40.57 14.34"/>
    <g>
      <rect class="cls-2" x="18.13" y="33.65" width="8.63" height="1.37"/>
      <rect class="cls-2" x="18.13" y="57.64" width="8.63" height="1.37"/>
      <rect class="cls-2" x="19.32" y="34.33" width="6.26" height="24"/>
    </g>
    <g>
      <rect class="cls-2" x="36.12" y="33.65" width="8.63" height="1.37"/>
      <rect class="cls-2" x="36.12" y="57.64" width="8.63" height="1.37"/>
      <rect class="cls-2" x="37.31" y="34.33" width="6.26" height="24"/>
    </g>
    <g>
      <rect class="cls-2" x="54.73" y="33.65" width="8.63" height="1.37"/>
      <rect class="cls-2" x="54.73" y="57.64" width="8.63" height="1.37"/>
      <rect class="cls-2" x="55.92" y="34.33" width="6.26" height="24"/>
    </g>
    <rect class="cls-2" x="15.34" y="60.4" width="50.45" height="2.63"/>
    <rect class="cls-2" x="11.76" y="64.16" width="57.61" height="2.63"/>
    <circle class="cls-2" cx="40.44" cy="22.63" r="3.62"/>
    <path class="cls-2" d="M26.99,35.01c0,.14-1.98.26-4.42.26s-4.42-.12-4.42-.26,1.98-.26,4.42-.26,4.42.12,4.42.26Z"/>
    <path class="cls-2" d="M44.96,35.01c0,.14-1.98.26-4.42.26s-4.42-.12-4.42-.26,1.98-.26,4.42-.26,4.42.12,4.42.26Z"/>
    <path class="cls-2" d="M63.47,35.01c0,.14-1.98.26-4.42.26s-4.42-.12-4.42-.26,1.98-.26,4.42-.26,4.42.12,4.42.26Z"/>
    <path class="cls-2" d="M26.99,57.6c0,.14-1.98.26-4.42.26s-4.42-.12-4.42-.26,1.98-.26,4.42-.26,4.42.12,4.42.26Z"/>
    <path class="cls-2" d="M44.96,57.6c0,.14-1.98.26-4.42.26s-4.42-.12-4.42-.26,1.98-.26,4.42-.26,4.42.12,4.42.26Z"/>
    <path class="cls-2" d="M63.47,57.6c0,.14-1.98.26-4.42.26s-4.42-.12-4.42-.26,1.98-.26,4.42-.26,4.42.12,4.42.26Z"/>
    <path class="cls-2" d="M63.49,29.19c0,.14-10.23.26-22.84.26s-22.85-.12-22.85-.26,10.23-.26,22.85-.26,22.84.12,22.84.26Z"/>
  </g>
</svg>