<?xml version="1.0" encoding="UTF-8"?>
<svg id="Shield" xmlns="http://www.w3.org/2000/svg" width="100.38" height="100.38" viewBox="0 0 100.38 100.38">
  <defs>
    <style>
      .cls-1 {
        fill: #e80000;
      }

      .cls-2 {
        fill: #fff;
        stroke: #00519b;
        stroke-miterlimit: 10;
      }
    </style>
  </defs>
  <circle class="cls-2" cx="50.19" cy="50.19" r="49.68" transform="translate(-20.79 50.19) rotate(-45)"/>
  <circle class="cls-2" cx="50.19" cy="50.19" r="41.72" transform="translate(-10.11 12.75) rotate(-13.17)"/>
  <path class="cls-1" d="M58.76,88.15l-1.41-6.64c-4.95.85-8.95.06-12-2.37-3.06-2.44-5.3-6.56-6.74-12.38l9.71-3.86c.6,2.36,1.28,4.3,2.02,5.8.74,1.51,1.6,2.57,2.58,3.18.98.61,2.11.78,3.39.51,1.47-.31,2.39-1,2.73-2.07.35-1.07.39-2.22.12-3.46-.52-2.43-1.51-4.34-2.98-5.75-1.47-1.4-3.36-2.73-5.66-3.98l-7.18-3.92c-1.66-.99-3.17-2.04-4.55-3.14-1.38-1.1-2.57-2.44-3.58-4.02-1.01-1.58-1.76-3.53-2.26-5.87-.95-4.48-.42-8.23,1.59-11.28,2.02-3.04,5.13-5.18,9.34-6.43l-1.35-6.36,3.43-.73,1.35,6.36c2.6-.4,4.83-.27,6.69.4,1.86.68,3.39,1.69,4.57,3.06,1.19,1.37,2.16,2.92,2.93,4.68.77,1.75,1.39,3.48,1.85,5.17l-9.89,3.67c-.42-1.75-.9-3.28-1.42-4.59-.53-1.31-1.18-2.27-1.96-2.9-.78-.63-1.81-.78-3.08-.46-1.32.33-2.22,1.07-2.7,2.22s-.59,2.34-.32,3.58c.47,2.19,1.36,3.84,2.7,4.95,1.33,1.11,2.79,2.14,4.39,3.1l7.02,3.88c1.88,1.09,3.66,2.33,5.35,3.72,1.69,1.38,3.15,3,4.39,4.85,1.24,1.85,2.14,4.09,2.7,6.71.54,2.52.51,4.93-.07,7.22-.58,2.29-1.7,4.28-3.36,5.98-1.66,1.7-3.77,2.94-6.34,3.74l1.43,6.71-3.43.73Z"/>
</svg>