<?xml version="1.0" encoding="UTF-8"?>
<svg id="Shield" xmlns="http://www.w3.org/2000/svg" width="107.29" height="369.53" viewBox="0 0 107.29 369.53">
  <defs>
    <style>
      .cls-1 {
        fill: #263238;
      }

      .cls-2 {
        opacity: .3;
      }

      .cls-3 {
        fill: #c60000;
      }

      .cls-4 {
        fill: #fff;
      }

      .cls-5 {
        fill: #e0e0e0;
      }

      .cls-6 {
        fill: #ffbf9d;
      }

      .cls-7 {
        fill: #282828;
      }

      .cls-8 {
        fill: #474747;
      }

      .cls-9 {
        fill: #ff9a6c;
      }
    </style>
  </defs>
  <g>
    <g>
      <g>
        <path class="cls-6" d="M33.55,24.87c1.53-9.89,10.39-16.94,20.36-16.21l.99.07c10.64,1.4,15.4,11.23,13.7,21.83l-3.71,37.62-.18,7.78-25.35,2.3.54-16.42s-10.16-2.35-9.54-12.63c.3-4.97,1.75-15.14,3.17-24.34Z"/>
        <path class="cls-9" d="M39.83,61.82s6.53.87,13.75-2.96c0,0-3.57,7.42-13.76,5.74v-2.78Z"/>
        <path class="cls-1" d="M37.53,35.12c-.08.77.5,1.48,1.31,1.58.8.1,1.52-.44,1.61-1.21.08-.77-.5-1.48-1.3-1.58-.81-.1-1.53.44-1.61,1.21Z"/>
        <path class="cls-1" d="M35.39,30.06c.17.2,1.34-.54,2.92-.42,1.58.1,2.68.99,2.86.81.09-.08-.07-.44-.55-.84-.47-.4-1.29-.82-2.28-.89-.98-.07-1.84.24-2.34.57-.51.34-.7.67-.62.76Z"/>
        <path class="cls-1" d="M52.33,36.53c-.08.77.5,1.48,1.31,1.58.8.1,1.52-.44,1.61-1.21.08-.77-.5-1.48-1.31-1.58-.81-.1-1.53.44-1.61,1.21Z"/>
        <path class="cls-1" d="M50.89,31.48c.17.2,1.34-.54,2.92-.42,1.58.1,2.68.99,2.86.81.09-.08-.07-.44-.55-.84-.47-.4-1.29-.82-2.27-.89-.98-.07-1.84.24-2.34.57-.51.34-.7.67-.62.76Z"/>
        <path class="cls-1" d="M44.31,42.78c.01-.09-.95-.33-2.53-.65-.4-.07-.78-.18-.82-.46-.07-.3.13-.72.36-1.18.45-.95.92-1.94,1.42-2.98,1.97-4.25,3.43-7.76,3.26-7.83-.17-.08-1.91,3.3-3.88,7.55-.48,1.05-.93,2.05-1.37,3-.19.45-.49.95-.32,1.57.09.31.37.55.62.64.25.1.48.12.68.15,1.59.2,2.59.28,2.6.19Z"/>
        <path class="cls-1" d="M48.87,44.21c-.26-.03-.38,1.68-1.94,2.79-1.55,1.11-3.37.79-3.4,1.03-.03.11.38.36,1.15.44.75.08,1.88-.08,2.83-.76.95-.68,1.41-1.65,1.52-2.35.12-.71-.04-1.15-.16-1.15Z"/>
        <path class="cls-1" d="M50.93,25.27c.12.44,1.72.35,3.55.71,1.84.32,3.3.97,3.57.61.12-.18-.11-.6-.68-1.06-.57-.46-1.49-.92-2.6-1.13-1.1-.2-2.13-.1-2.83.12-.7.22-1.07.54-1.01.75Z"/>
        <path class="cls-1" d="M36.31,25.53c.25.38,1.37.09,2.68.16,1.31.03,2.4.42,2.68.06.12-.17-.02-.55-.48-.92-.45-.37-1.23-.71-2.13-.75-.9-.04-1.7.23-2.19.57-.49.34-.67.69-.56.88Z"/>
        <path class="cls-6" d="M66.23,40.44c.18-1.58,1.64-2.73,3.21-2.47,1.9.32,3.96,1.56,3.54,5.51-.74,7.01-7.62,4.82-7.61,4.62,0-.14.53-4.74.86-7.67Z"/>
        <path class="cls-9" d="M67.17,45.63s.11.1.31.21c.19.11.53.21.91.11.77-.19,1.52-1.3,1.68-2.56.08-.64.01-1.26-.16-1.78-.16-.54-.45-.93-.82-1.03-.36-.12-.65.07-.76.26-.11.19-.08.33-.12.34-.02.02-.14-.13-.05-.42.04-.14.14-.29.32-.41.18-.12.44-.16.69-.11.54.09.97.64,1.16,1.22.22.58.31,1.28.22,2-.19,1.41-1.05,2.65-2.1,2.84-.51.08-.9-.12-1.1-.3-.2-.2-.22-.36-.19-.37Z"/>
      </g>
      <g>
        <path class="cls-7" d="M71.84,33.29c-.58,2.01-.37,5.35-2.17,4.89-3.56-.9-2.71,6.41-4.42,5.69-1.69-.71-3.18-2.79-3.28-7.28-.13-5.71,2.16-9.83-.09-16.36-1.51-2.62-4.19-4.41-7.21-4.48-3.02-.07-5.94,1.46-7.57,4.01-.32-1.99-1.29-4.99-3.06-5.95-1.77-.96-4.14-.85-5.67.47-1.53,1.32-1.95,3.83-.74,5.45-.81.26-1.78-.08-2.24-.81-.07.93.26,1.88.89,2.56-.73-.18-1.38-.64-1.81-1.26.18.82.35,1.65.53,2.47-3,.08-5.94-2.83-6.78-5.42-1.26-3.92-.29-7.88,1.9-11.37C32.32,2.42,36.24-.04,40.37,0c4.12.04,7.58,1.99,9.17,5.79,2.68-1.89,8.1-2.55,11.08-1.19,2.98,1.36,5.15,4.37,5.48,7.63,1.87-.79,4.11-.18,5.68,1.1.13.11.26.22.38.33,2.16,1.99,3.04,5.02,2.49,7.9-.22,1.14-.61,2.33-.85,3.24-.69,2.73-1.96,8.48-1.96,8.48Z"/>
        <path class="cls-8" d="M34.92,18.75s-.09-.06-.24-.19c-.15-.13-.36-.34-.59-.65-.47-.6-1.02-1.61-1.18-2.98-.17-1.34.14-3.12,1.4-4.5,1.2-1.36,3.23-2.33,5.36-2.02,1.05.15,2.02.57,2.84,1.11.83.55,1.53,1.21,2.09,1.92,1.15,1.4,1.81,2.94,2.15,4.25.34,1.32.38,2.44.35,3.2-.03.38-.05.67-.09.87-.03.2-.05.3-.06.3-.09,0,.3-1.7-.41-4.31-.36-1.28-1.03-2.77-2.16-4.13-1.11-1.34-2.75-2.61-4.76-2.9-2.01-.29-3.95.62-5.1,1.91-1.2,1.29-1.53,2.98-1.39,4.28.13,1.33.63,2.33,1.06,2.94.43.61.76.88.73.91Z"/>
        <path class="cls-8" d="M33.54,21.89s-.08-.11-.21-.34c-.13-.23-.32-.57-.55-1.01-.45-.89-1.14-2.18-1.65-3.91-.25-.86-.44-1.85-.46-2.91-.02-1.06.13-2.22.61-3.33.47-1.11,1.31-2.14,2.41-2.86,1.1-.72,2.42-1.18,3.81-1.26,1.39-.09,2.75.18,3.97.63,1.22.46,2.31,1.11,3.25,1.85,1.89,1.47,3.13,3.38,3.55,5.15.44,1.77.16,3.29-.21,4.22-.18.47-.39.81-.52,1.03-.15.22-.24.33-.25.32-.03-.02.33-.46.66-1.39.32-.92.56-2.41.11-4.12-.44-1.71-1.66-3.55-3.51-4.98-1.83-1.42-4.32-2.56-7.02-2.4-1.34.08-2.61.52-3.67,1.21-1.05.69-1.86,1.66-2.31,2.72-.46,1.06-.62,2.18-.61,3.22,0,1.04.18,2,.42,2.86.48,1.71,1.13,3.02,1.55,3.92.2.43.37.77.5,1.04.11.24.17.37.16.37Z"/>
        <path class="cls-8" d="M69.36,28.75s.65-.53,1.5-1.54c.85-1,1.83-2.6,2.24-4.58.41-1.98.15-3.84-.23-5.09-.38-1.27-.82-1.98-.76-2.01.02,0,.14.16.33.48.19.33.43.82.65,1.46.45,1.27.75,3.18.33,5.22-.42,2.04-1.47,3.68-2.38,4.66-.46.5-.87.86-1.17,1.08-.3.23-.48.33-.49.31Z"/>
        <path class="cls-8" d="M62.97,28.55s.35-.16.91-.54c.54-.38,1.29-1.05,1.77-2.13l.3-.67-.07.73c-.09.99-.19,2.13-.3,3.36l-.23-.14c.83-.56,1.63-1.32,2.29-2.25.84-1.17,1.35-2.47,1.57-3.7.21-1.23.15-2.37-.02-3.3-.36-1.87-1.06-2.87-.99-2.9,0,0,.05.05.13.17.08.12.18.3.31.54.25.48.56,1.2.76,2.15.2.94.29,2.12.09,3.39-.21,1.27-.73,2.62-1.6,3.83-.68.95-1.52,1.74-2.38,2.31l-.26.17.03-.31c.13-1.23.25-2.37.36-3.35l.23.06c-.53,1.13-1.33,1.79-1.92,2.15-.29.18-.54.29-.71.35-.17.06-.26.08-.27.07Z"/>
        <path class="cls-8" d="M61.02,13.77c-.06.04-.36-1-1.62-2.03-.63-.5-1.49-.97-2.53-1.17-1.03-.21-2.23-.12-3.38.31-1.15.43-2.12,1.12-2.83,1.91-.72.78-1.2,1.63-1.52,2.37-.64,1.49-.7,2.53-.77,2.51-.02,0-.02-.26.05-.71.07-.46.21-1.11.51-1.88.31-.77.78-1.65,1.51-2.48.73-.83,1.74-1.56,2.93-2.01,1.2-.44,2.46-.53,3.54-.29,1.09.23,1.98.75,2.61,1.29.63.55,1.02,1.11,1.23,1.52.1.21.18.37.21.49.04.12.06.18.05.18Z"/>
        <path class="cls-8" d="M59.38,8.41c-.03.06-.68-.46-1.94-.75-1.23-.3-3.1-.25-4.82.68-1.72.94-2.82,2.43-3.41,3.55-.61,1.13-.8,1.92-.86,1.91-.02,0,.01-.21.11-.56.1-.35.27-.86.56-1.45.56-1.17,1.67-2.74,3.46-3.72,1.8-.98,3.76-.98,5.02-.62.64.18,1.12.41,1.43.61.31.2.46.33.45.35Z"/>
      </g>
    </g>
    <g>
      <path class="cls-7" d="M36.81,339.56l.71,19.23s-19.31,7.18-19.53,10.74l37.34-.03.13-30.01-18.65.07Z"/>
      <path class="cls-5" d="M49.06,357.16c.72.2,1.22,1.01,1.06,1.74-.17.73-.99,1.25-1.71,1.06-.73-.18-1.36-1.14-1.11-1.85.25-.71,1.25-1.26,1.91-.91"/>
      <path class="cls-7" d="M55.33,369.5l-.11-3.03-35.76,1.16s-1.66.72-1.47,1.9l37.34-.03Z"/>
      <path class="cls-4" d="M36.91,358.6c0,.18.92.26,1.82.85.91.56,1.38,1.35,1.54,1.28.17-.04-.1-1.13-1.2-1.81-1.09-.7-2.19-.48-2.16-.31Z"/>
      <path class="cls-4" d="M33,360.22c-.04.18.75.49,1.37,1.26.64.75.8,1.59.98,1.58.17.03.3-1.04-.49-1.98-.78-.95-1.85-1.03-1.86-.85Z"/>
      <path class="cls-4" d="M30.78,364.91c.17.04.42-.87-.05-1.87-.46-1-1.32-1.39-1.4-1.24-.1.15.45.69.82,1.51.39.82.44,1.58.63,1.6Z"/>
      <path class="cls-4" d="M37.24,354.2c.08.17.91-.09,1.94-.02,1.03.05,1.83.39,1.93.24.11-.13-.68-.81-1.89-.87-1.21-.07-2.07.51-1.98.65Z"/>
    </g>
    <g>
      <path class="cls-7" d="M79.03,339.56l.71,19.23s-19.31,7.18-19.53,10.74l37.34-.03-.64-34-17.88,4.05Z"/>
      <path class="cls-5" d="M91.28,357.16c.72.2,1.22,1.01,1.06,1.74-.17.73-.99,1.25-1.71,1.06-.73-.18-1.36-1.14-1.11-1.85.25-.71,1.25-1.26,1.91-.91"/>
      <path class="cls-7" d="M97.55,369.5l-.11-3.03-35.76,1.16s-1.66.72-1.47,1.9l37.34-.03Z"/>
      <path class="cls-4" d="M79.13,358.6c0,.18.92.26,1.82.85.91.56,1.38,1.35,1.54,1.28.17-.04-.1-1.13-1.2-1.81-1.09-.7-2.19-.48-2.16-.31Z"/>
      <path class="cls-4" d="M75.21,360.22c-.04.18.75.49,1.37,1.26.64.75.8,1.59.98,1.58.17.03.3-1.04-.49-1.98-.78-.95-1.85-1.03-1.86-.85Z"/>
      <path class="cls-4" d="M72.99,364.91c.17.04.42-.87-.05-1.87-.46-1-1.32-1.39-1.4-1.24-.1.15.45.69.82,1.51.39.82.44,1.58.63,1.6Z"/>
      <path class="cls-4" d="M79.45,354.2c.08.17.91-.09,1.94-.02,1.03.05,1.83.39,1.93.24.11-.13-.68-.81-1.89-.87-1.21-.07-2.07.51-1.98.65Z"/>
    </g>
    <g>
      <path class="cls-7" d="M20.45,177.01s-3.08,10.89-2.36,24.27c.28,5.17,16.9,154.7,16.9,154.7l21.15-1.9-3.66-139.8.89.79s12.6,58.82,13.43,68.11c.75,8.36,10.81,75.5,10.81,75.5l20.52-.98-4.65-84.87-6.22-77.05-2.49-22.45-64.31,3.68Z"/>
      <path class="cls-8" d="M56.55,202.22s-.34.22-.99.53c-.66.29-1.63.74-2.94.95-.65.1-1.39.12-2.17-.03-.77-.15-1.59-.5-2.24-1.14-.65-.64-1.07-1.52-1.32-2.44-.26-.92-.39-1.88-.57-2.85-.66-3.89-1.09-7.45-1.32-10.02-.12-1.29-.19-2.33-.23-3.05-.04-.72-.04-1.12,0-1.13.03,0,.1.39.2,1.11.1.82.23,1.83.39,3.03.33,2.56.81,6.09,1.47,9.98.34,1.92.55,3.87,1.72,5.04,1.17,1.15,2.82,1.3,4.04,1.15,1.26-.16,2.24-.55,2.91-.78.68-.25,1.05-.38,1.07-.35Z"/>
      <path class="cls-8" d="M49.88,183.84s.16-.12.49-.13c.33-.02.82.09,1.31.45.46.36.95.99.95,1.84.02.86-.67,1.69-1.55,1.99-.87.32-1.93.1-2.45-.59-.53-.67-.54-1.46-.4-2.03.15-.58.47-.98.74-1.17.27-.2.46-.22.46-.2.06.07-.67.38-.86,1.44-.08.5-.02,1.17.41,1.66.41.5,1.21.67,1.94.41.73-.25,1.25-.88,1.26-1.53.03-.65-.34-1.22-.71-1.56-.81-.71-1.58-.5-1.57-.59Z"/>
      <path class="cls-8" d="M86.96,194.39s-.28.07-.8.11c-.52.04-1.28.04-2.21-.03-1.86-.13-4.43-.64-7.05-1.81-2.61-1.18-4.71-2.76-6.04-4.07-.67-.65-1.17-1.21-1.49-1.63-.32-.41-.48-.65-.45-.67.07-.06.8.83,2.18,2.04,1.37,1.22,3.45,2.72,6,3.87,2.56,1.14,5.06,1.7,6.88,1.91,1.83.22,2.97.18,2.98.27Z"/>
      <path class="cls-8" d="M29.95,183.81c.05.03-.37.97-1.28,2.37-.9,1.4-2.33,3.23-4.2,4.97-1.87,1.73-3.8,3.02-5.27,3.82-1.46.8-2.44,1.15-2.46,1.1-.03-.07.88-.54,2.28-1.4,1.4-.86,3.27-2.18,5.11-3.88,1.84-1.71,3.28-3.47,4.25-4.8.97-1.33,1.5-2.21,1.57-2.17Z"/>
    </g>
    <g>
      <g>
        <path class="cls-6" d="M8.97,99.35c-3.15,9.17-2.8,8.39-8.67,35.78-1.08,5.05.83,12.96,5.39,15.4,4.56,2.44,12.66-.24,15.37-4.64l4.37-41.35-16.45-5.19Z"/>
        <path class="cls-3" d="M84.77,149.04l-.12-21.79.09-2.14,22.11-5.16s-4.34-14.3-8.32-29.67c-2.3-8.87-9.95-13.34-11.8-14.3h0s-.4-.2-.4-.2c0,0,0,0,0,0h0l-21.28-9.01c-4.3,4.59-10.56,8.26-16.59,6.5-3.3-.96-6.68-3.4-8.75-5.97l-14.35,4.92h0c-3.68,1.35-7.58,3.92-9.92,8.04-3,5.31-12.59,29.65-12.76,30.2l17.76,1.6s-3.15,57.61-2.04,67.91c0,0,4.31,2.98,15.2,3.5,22.07,1.04,54.92-.53,54.92-.53-.51-3.33-1.05-8.88-1.36-11.69l-2.4-22.21Z"/>
        <path class="cls-1" d="M21.04,90.6c.09,0-.38,13.74-1.05,30.69-.67,16.95-1.29,30.68-1.38,30.68-.09,0,.38-13.74,1.05-30.69.67-16.94,1.29-30.68,1.38-30.67Z"/>
      </g>
      <path class="cls-1" d="M82.34,94.44c-.16,0,.29,12.2,1,27.23.71,15.03,1.41,27.21,1.57,27.21.16,0-.29-12.2-1-27.23-.71-15.03-1.41-27.21-1.57-27.2Z"/>
      <g>
        <path class="cls-6" d="M106.95,130.32c-.72-5.41-1.32-10.19-1.32-10.19l-17.68,4.11.76,2.85-13.67-13.88-2.16.19-6.88,7.16s6,12.67,9.49,17.6c4.54,6.42,11.67,16.2,21.44,15.38,9.03-.76,11.32-13.5,10.03-23.2Z"/>
        <path class="cls-9" d="M97.37,133.56c.11-.1-1.51-1.86-3.89-3.57-2.37-1.72-4.55-2.69-4.62-2.55-.08.15,1.95,1.33,4.28,3.02,2.34,1.68,4.1,3.23,4.22,3.11Z"/>
        <g>
          <path class="cls-6" d="M51.17,95.08l6.07-3.1,7.88,2.5,3.91,3.6,6,15.12,4.81,6.09-8.49,11.06-5.37-9.8s-4.56-1.99-6.38-4.87c-1.82-2.87-2.64-4.44-2.64-4.44,0,0-2.63-1.26-3.12-2.48-.49-1.21-.47-2.16-.47-2.16l1.33-1.94s-.13-1.81.4-2.48c.53-.67,1.05-.83,1.05-.83,0,0-.39-1.64.22-2.23.61-.59,3.64-1.67,3.64-1.67h0l-2.65-1.51s-5.88,1.82-6.21-.87Z"/>
          <path class="cls-9" d="M60.19,100.57c0,.08-.93.1-2.04.34-1.11.23-1.97.59-2.01.52-.03-.06.8-.53,1.95-.77,1.15-.25,2.1-.15,2.1-.08Z"/>
          <path class="cls-9" d="M58.37,103.97c0,.08-.8.07-1.76.22-.96.14-1.72.38-1.74.31-.03-.06.71-.42,1.71-.56.99-.15,1.8-.03,1.8.03Z"/>
          <path class="cls-9" d="M55.8,109.28c-.07,0-.12-.35-.11-.77,0-.43.07-.77.15-.77.07,0,.12.35.11.77,0,.43-.07.77-.15.77Z"/>
          <path class="cls-9" d="M56.96,110.92c-.07,0-.03-.74-.56-1.4-.51-.68-1.24-.81-1.22-.88,0-.03.19-.05.48.04.29.09.66.31.95.68.29.37.42.78.43,1.08.02.3-.05.48-.08.48Z"/>
          <path class="cls-9" d="M61.71,106.07c-.07.03-.33-.64-1.06-1.04-.72-.42-1.43-.28-1.44-.36,0-.03.16-.11.45-.13.29-.02.71.04,1.11.27.4.22.67.55.81.81.14.26.15.45.12.46Z"/>
          <path class="cls-9" d="M64.48,102.71c-.07.03-.31-.6-.97-1.01-.65-.43-1.32-.38-1.33-.46,0-.03.16-.09.44-.09.28,0,.67.1,1.03.33.36.23.61.54.73.79.12.25.13.43.1.43Z"/>
          <path class="cls-9" d="M66.34,101.06s-.02-.21-.06-.52c-.04-.31-.16-.73-.44-1.11-.28-.38-.65-.62-.94-.75-.29-.13-.49-.17-.48-.21,0-.03.22-.06.55.04.33.09.76.33,1.08.76.32.43.42.92.42,1.26,0,.34-.09.54-.12.53Z"/>
          <path class="cls-9" d="M63.76,97.11c0,.09-1.27.11-2.8.35-1.53.24-2.69.77-2.72.7-.03-.05,1.1-.71,2.68-.96.78-.13,1.5-.15,2.01-.15.52,0,.83.03.83.06Z"/>
        </g>
      </g>
    </g>
  </g>
  <g class="cls-2">
    <path d="M46.46,131.26c-.22-1.76-.48-3.59-1.5-5.04-1.78-2.51-5.27-3.04-8.34-2.89-3.07.15-6.25.75-9.14-.3l-8.61,25.58c3.2-.78,6.05-2.86,7.78-5.66.88-1.43,1.52-3.09,2.85-4.11,1.83-1.41,4.38-1.2,6.69-1.23,2.42-.03,4.83-.38,7.16-1.05.99-.29,2.01-.67,2.62-1.5.78-1.06.65-2.51.48-3.81Z"/>
  </g>
  <g>
    <g>
      <path class="cls-1" d="M24.27,101.31l2.68,28.47c.15,1.58.76,2.68,1.76,3.28l17.27-.37c.7-.64,1.47-2.67,1.32-4.84l-1.91-27.25c-.11-1.64-.73-2.82-1.47-2.84l-18.19-.42c-.93-.02-1.65,1.94-1.46,3.97Z"/>
      <path class="cls-6" d="M21.76,107.04c-.73-.84-.63-2.21.06-3.09.69-.88,1.84-1.3,2.96-1.32,1.12-.02,2.21.33,3.24.75,1.28.52,2.5,1.17,3.65,1.93.81.54,1.65,1.23,1.79,2.19.14.96-.93,2.03-1.76,1.53,1.09.49,2.17,1.68,2.32,2.89.15,1.22-.52,1.86-1.7,2.18.89.37,1.43,1.51,1,2.36-.45.9-1.72,1.12-2.65.74-.93-.38-1.61-1.19-2.25-1.98.64,1.17.59,3.04.31,4.34-2.57-.95-5.11-3.81-4.35-6.53-1.25-.99-1.82-3.02-1.03-4.41-1.04-.35-2.19-1.97-2.08-3.07"/>
    </g>
    <path class="cls-6" d="M21.47,104.55l-.21,12.17-3.16,4.75-14.48,12.94s2.15,17.59,8.68,15.67c6.53-1.92,8.12-3.17,11.98-10.27,2.07-3.8,3.34-9.98,4.54-13.53.7-2.08.08-8.78.08-8.78l-7.44-12.95Z"/>
    <path class="cls-9" d="M32.28,114.12s-.43-.33-1.1-.88c-.67-.54-1.65-1.28-2.92-1.58-.63-.15-1.26-.16-1.8-.04-.54.12-1,.37-1.33.63-.67.53-.83,1.09-.88,1.06-.01,0,0-.14.11-.37.1-.23.3-.54.64-.84.34-.3.81-.58,1.4-.73.58-.15,1.26-.14,1.93.02,1.35.32,2.34,1.13,2.99,1.71.65.6,1,1.01.97,1.04Z"/>
    <path class="cls-9" d="M32.11,109.16s-.54-.18-1.35-.6c-.41-.2-.88-.45-1.44-.67-.55-.21-1.19-.39-1.86-.53-.67-.13-1.32-.16-1.9-.06-.57.1-1.06.32-1.42.58-.73.52-.89,1.1-.94,1.07-.01,0,0-.15.12-.39.11-.23.33-.56.7-.85.37-.29.88-.56,1.49-.67.61-.12,1.3-.09,2,.04.69.14,1.33.33,1.9.56.57.24,1.04.51,1.44.73.78.46,1.27.74,1.25.78Z"/>
    <path class="cls-9" d="M5.2,141.4c.12-.01-.64-1.73-.18-4.53.23-1.38.77-3,1.71-4.6.93-1.61,2.27-3.19,3.82-4.69,1.56-1.5,3.16-2.82,4.59-4.05,1.43-1.23,2.68-2.4,3.66-3.45.97-1.05,1.68-1.99,2.11-2.66.44-.67.62-1.08.6-1.09-.03-.02-.28.35-.75.98-.48.63-1.21,1.52-2.2,2.53-.99,1.01-2.26,2.14-3.7,3.35-1.44,1.21-3.06,2.52-4.63,4.04-1.57,1.52-2.93,3.14-3.87,4.81-.94,1.67-1.47,3.34-1.66,4.77-.19,1.44-.07,2.62.11,3.4.1.39.18.69.27.89.08.2.12.3.14.29Z"/>
  </g>
</svg>