<?xml version="1.0" encoding="UTF-8"?>
<svg id="Shield" xmlns="http://www.w3.org/2000/svg" width="140.67" height="174.03" viewBox="0 0 140.67 174.03">
  <defs>
    <style>
      .cls-1 {
        fill: #c60000;
      }

      .cls-2, .cls-3 {
        fill: #fff;
      }

      .cls-3 {
        stroke: #00519b;
        stroke-miterlimit: 10;
        stroke-width: 3px;
      }
    </style>
  </defs>
  <path class="cls-3" d="M124.99,39.2c-18.69-7.91-37.84-17.95-49.06-34.7-.02-.04-.05-.07-.07-.11-2.57-3.85-8.48-3.85-11.05,0-.02.04-.05.07-.07.11-11.22,16.76-30.37,26.79-49.06,34.7-.83.35-14.19,4.73-14.18,4.86,0,.01,2.82,65.03,24.07,93.46,18.15,24.28,39.04,32.91,44.76,34.91,5.72-2.01,26.62-10.64,44.76-34.91,21.25-28.43,24.07-93.45,24.07-93.46,0-.13-13.35-4.51-14.18-4.86Z"/>
  <path class="cls-3" d="M117.52,45.42c-16.29-7.24-31.88-15.45-43.5-29.84-1.53-2.48-5.29-2.66-7.11-.37-10.94,14.63-27.62,23.38-43.75,30.21-.6.26-8.82,2.96-11.44,3.89-.48.17-.78.61-.76,1.09.37,6.85,3.66,57.06,20.74,79.9,15.26,20.41,32.76,28.01,38.23,29.99.27.1.56.1.83,0,5.47-1.98,22.97-9.58,38.23-29.99,17.08-22.84,20.37-73.05,20.74-79.9.03-.48-.28-.92-.76-1.09-2.62-.93-10.85-3.62-11.44-3.89Z"/>
  <g>
    <circle class="cls-1" cx="70.34" cy="86.97" r="33.93"/>
    <path class="cls-2" d="M65.88,104.09c-.1,0-.2,0-.31-.01-1.14-.1-2.17-.72-2.79-1.69l-10.14-16.09c-1.08-1.71-.57-3.97,1.14-5.04,1.71-1.08,3.97-.57,5.04,1.14l7.56,11.99,20.9-23.32c1.35-1.5,3.66-1.63,5.16-.28,1.5,1.35,1.63,3.66.28,5.16l-24.13,26.93c-.7.78-1.69,1.22-2.72,1.22Z"/>
  </g>
</svg>