<?xml version="1.0" encoding="UTF-8"?>
<svg id="Shield" xmlns="http://www.w3.org/2000/svg" width="51.07" height="51.08" viewBox="0 0 51.07 51.08">
  <defs>
    <style>
      .cls-1 {
        fill: #c60000;
      }

      .cls-2 {
        fill: #00519b;
      }

      .cls-3 {
        fill: #fff;
      }
    </style>
  </defs>
  <path class="cls-3" d="M46.24,47.46l-6.61-.8c-4.19,2.8-9.26,4.39-14.75,4.25C11.93,50.59,1.16,40.28.25,27.36-.8,12.44,11.19-.19,26.25.2c12.79.33,23.47,10.4,24.57,23.15.54,6.33-1.26,12.25-4.66,16.98h.01s.06,7.13.06,7.13Z"/>
  <path class="cls-2" d="M46.24,47.46s-.01-.17-.02-.48c0-.33-.02-.79-.03-1.38-.02-1.22-.06-2.99-.1-5.28l.15.07s0,0-.01,0c-.04.03-.1.03-.13-.01-.03-.03-.03-.08,0-.11,1.8-2.56,3.8-6.35,4.45-11.3.33-2.46.29-5.18-.21-8.01-.53-2.82-1.6-5.73-3.28-8.48-1.69-2.73-4-5.28-6.85-7.33-2.85-2.04-6.23-3.63-9.94-4.3-3.69-.69-7.67-.55-11.5.5-3.84,1.03-7.47,3.12-10.47,5.96-1.56,1.4-2.81,3.08-3.96,4.77-.51.89-1.04,1.77-1.47,2.68l-.6,1.4-.3.7-.22.72c-1.27,3.81-1.56,7.82-1.04,11.58.5,3.78,1.97,7.25,3.91,10.2,1.95,2.95,4.44,5.37,7.12,7.17,2.7,1.79,5.59,2.97,8.4,3.61.71.12,1.41.25,2.1.37.69.1,1.38.12,2.05.18,1.34.1,2.64.04,3.88-.07,4.98-.49,8.83-2.36,11.42-4.05.02-.01.04-.02.06-.01,2.1.28,3.74.49,4.87.64.55.08.97.13,1.28.18.29.04.45.07.45.07,0,0-.14,0-.42-.03-.3-.03-.72-.08-1.26-.13-1.15-.13-2.81-.31-4.94-.54h.06c-2.58,1.73-6.45,3.65-11.49,4.18-1.25.12-2.57.2-3.93.1-.68-.06-1.38-.07-2.07-.17-.7-.12-1.41-.24-2.13-.36-2.86-.63-5.79-1.81-8.54-3.62-2.74-1.82-5.26-4.27-7.26-7.26-1.98-2.99-3.49-6.53-4-10.37-.53-3.83-.25-7.9,1.05-11.79l.23-.73.3-.71c.2-.47.41-.95.61-1.42.44-.93.98-1.83,1.5-2.73,1.17-1.73,2.45-3.43,4.03-4.86,3.05-2.9,6.76-5.02,10.67-6.07,3.9-1.07,7.94-1.2,11.7-.49,3.78.68,7.21,2.31,10.1,4.39,2.89,2.09,5.23,4.68,6.93,7.46,1.69,2.79,2.77,5.75,3.29,8.61.5,2.87.52,5.62.17,8.11-.69,5.01-2.75,8.82-4.59,11.37l-.13-.13s.01,0,.01,0c.04-.03.1-.03.13.01.01.02.02.04.02.06,0,2.31,0,4.1,0,5.33,0,.58,0,1.03,0,1.36,0,.3-.01.45-.01.45Z"/>
  <polygon class="cls-1" points="14.35 27.11 17.53 23.71 24.07 29.13 36.11 16.73 39.28 19.91 23.81 35.49 14.35 27.11"/>
</svg>