<svg width="106" height="11" viewBox="0 0 106 11" fill="none" xmlns="http://www.w3.org/2000/svg">
<g clip-path="url(#clip0_2_1080)">
<path d="M95.4901 9.30458C94.1259 9.31838 92.4697 9.30458 90.961 7.93797C90.6257 7.63428 90.2991 7.88275 89.9869 8.12663C89.2788 8.67879 88.5823 9.26317 87.8626 9.76932C84.874 11.8722 82.1167 11.3338 79.7004 7.74011C79.0992 6.84284 78.7148 6.83364 78.0645 7.66649C75.2176 11.297 72.8649 11.4948 69.726 8.52694C69.1162 7.95177 68.4919 7.40421 67.9225 6.73701C66.9774 5.62808 66.0496 5.70171 65.0524 6.53916C63.7951 7.58827 62.4887 8.44412 61.1303 9.12052C58.6446 10.3629 56.474 9.52085 54.5347 6.85205C54.3757 6.63118 54.2052 6.43333 54.0577 6.19406C53.5144 5.29218 53.0433 5.18175 52.3987 6.12963C51.0374 8.13123 49.494 9.56226 47.5228 9.33679C46.6384 9.23556 45.8262 8.79383 45.0314 8.25087C44.2337 7.70791 43.4706 7.0315 42.7654 6.23086C40.3549 3.49304 40.589 3.83354 38.1785 6.0376C36.0166 8.01619 33.7535 9.08832 31.2447 8.31989C29.6492 7.83214 28.3342 6.48394 27.1145 4.84125C25.8977 3.20776 25.8427 3.23076 24.4207 4.44552C22.5305 6.06521 20.5795 7.32598 18.3742 7.28917C16.3019 7.25696 14.5301 6.21706 13.0994 3.74612C12.0503 1.93778 12.0069 1.94697 10.767 3.41021C8.74667 5.79373 6.64831 7.92877 4.12798 8.66039C3.07302 8.96868 1.98626 9.11593 0.960211 8.3475C0.726097 8.17264 0.422626 7.97018 0.518005 7.46403C0.604714 7.01309 0.925543 7.13733 1.13942 7.19255C3.35628 7.75852 5.2523 6.3643 7.11365 4.75382C8.29578 3.72771 9.3016 2.29668 10.4028 1.09572C11.8046 -0.436539 12.6746 -0.431938 13.8018 1.55586C15.9666 5.375 18.5505 5.31978 21.3165 3.91176C22.3715 3.3734 23.3195 2.45313 24.2964 1.63409C25.5306 0.598777 26.6607 0.718412 27.707 2.23687C27.9006 2.51755 28.1174 2.76142 28.3139 3.0375C30.7938 6.50694 33.5309 6.81983 36.4414 4.64338C37.2247 4.059 37.9617 3.32739 38.7132 2.63718C39.9994 1.46383 41.2335 1.46844 42.4792 2.84425C43.6007 4.07742 44.7279 5.31059 46.0083 6.12043C47.6326 7.15114 49.1414 6.94408 50.52 5.15874C50.9073 4.65719 51.286 4.14183 51.6617 3.62187C52.7253 2.16784 53.5809 2.09421 54.7167 3.378C55.2514 3.98078 55.7746 4.61577 56.318 5.20475C57.344 6.32288 58.4597 6.68639 59.6909 6.27227C60.6765 5.94097 61.6101 5.41641 62.5176 4.74461C63.0639 4.33969 63.6188 3.94857 64.1506 3.49303C65.9629 1.93777 67.6652 2.23686 69.3272 4.10042C70.0555 4.91486 70.8446 5.59587 71.6278 6.27227C73.1857 7.62047 74.7031 7.43643 76.154 5.83515C76.6511 5.28758 77.1309 4.7032 77.6338 4.16944C78.472 3.28137 79.3073 3.29057 80.1166 4.27067C80.4721 4.6986 80.8218 5.14033 81.1542 5.61428C82.6427 7.72171 84.3278 8.22326 86.2122 7.26617C87.2209 6.75542 88.1429 5.94558 89.0649 5.15414C90.1141 4.24767 91.1199 4.08662 92.1951 5.09892C93.0825 5.93177 94.1201 5.85355 95.1114 5.95018C97.9468 6.22626 100.776 5.6787 103.609 5.72931C104.08 5.73851 104.551 5.83053 105.019 5.89495C105.227 5.92256 105.482 5.91336 105.499 6.3597C105.516 6.77842 105.265 6.89807 105.071 6.98549C104.288 7.3306 103.502 7.67109 102.71 7.96557C100.427 8.80303 98.1202 9.35059 95.4756 9.30458H95.4901Z" fill="#E80000"/>
</g>
<defs>
<clipPath id="clip0_2_1080">
<rect width="105" height="11" fill="white" transform="translate(0.5)"/>
</clipPath>
</defs>
</svg>
