<svg width="74" height="11" viewBox="0 0 74 11" fill="none" xmlns="http://www.w3.org/2000/svg">
<g clip-path="url(#clip0_2_1072)">
<path d="M66.5407 9.30458C65.5923 9.31838 64.4408 9.30458 63.3919 7.93797C63.1588 7.63428 62.9318 7.88275 62.7147 8.12663C62.2224 8.67879 61.7381 9.26317 61.2378 9.76932C59.16 11.8722 57.243 11.3338 55.5631 7.74011C55.1452 6.84284 54.8779 6.83364 54.4258 7.66649C52.4465 11.297 50.8108 11.4948 48.6286 8.52694C48.2046 7.95177 47.7705 7.40421 47.3747 6.73701C46.7176 5.62808 46.0725 5.70171 45.3793 6.53916C44.5052 7.58827 43.5969 8.44412 42.6525 9.12052C40.9244 10.3629 39.4153 9.52085 38.0669 6.85205C37.9564 6.63118 37.8379 6.43333 37.7354 6.19406C37.3576 5.29218 37.0301 5.18175 36.582 6.12963C35.6355 8.13123 34.5625 9.56226 33.192 9.33679C32.5772 9.23556 32.0125 8.79383 31.4599 8.25087C30.9053 7.70791 30.3748 7.0315 29.8845 6.23086C28.2086 3.49304 28.3714 3.83354 26.6955 6.0376C25.1925 8.01619 23.6191 9.08832 21.8749 8.31989C20.7657 7.83214 19.8514 6.48394 19.0034 4.84125C18.1574 3.20776 18.1192 3.23076 17.1306 4.44552C15.8164 6.06521 14.46 7.32598 12.9268 7.28917C11.4861 7.25696 10.2543 6.21706 9.2596 3.74612C8.53018 1.93778 8.50005 1.94697 7.638 3.41021C6.2334 5.79373 4.77454 7.92877 3.02231 8.66039C2.28886 8.96868 1.53331 9.11593 0.819956 8.3475C0.657191 8.17264 0.446206 7.97018 0.512518 7.46403C0.572801 7.01309 0.795854 7.13733 0.944553 7.19255C2.48579 7.75852 3.80398 6.3643 5.09806 4.75382C5.91992 3.72771 6.61921 2.29668 7.38481 1.09572C8.35938 -0.436539 8.96423 -0.431938 9.74791 1.55586C11.253 5.375 13.0494 5.31978 14.9725 3.91176C15.7059 3.3734 16.365 2.45313 17.0442 1.63409C17.9022 0.598777 18.6879 0.718412 19.4153 2.23687C19.55 2.51755 19.7007 2.76142 19.8373 3.0375C21.5614 6.50694 23.4643 6.81983 25.4878 4.64338C26.0324 4.059 26.5448 3.32739 27.0673 2.63718C27.9615 1.46383 28.8195 1.46844 29.6856 2.84425C30.4652 4.07742 31.2489 5.31059 32.1391 6.12043C33.2684 7.15114 34.3173 6.94408 35.2758 5.15874C35.5451 4.65719 35.8083 4.14183 36.0696 3.62187C36.809 2.16784 37.4038 2.09421 38.1935 3.378C38.5653 3.98078 38.929 4.61577 39.3068 5.20475C40.0201 6.32288 40.7958 6.68639 41.6518 6.27227C42.337 5.94097 42.9861 5.41641 43.617 4.74461C43.9968 4.33969 44.3826 3.94857 44.7523 3.49303C46.0123 1.93777 47.1958 2.23686 48.3513 4.10042C48.8576 4.91486 49.4062 5.59587 49.9508 6.27227C51.0339 7.62047 52.0888 7.43643 53.0976 5.83515C53.4432 5.28758 53.7767 4.7032 54.1264 4.16944C54.7091 3.28137 55.2899 3.29057 55.8525 4.27067C56.0997 4.6986 56.3428 5.14033 56.5739 5.61428C57.6087 7.72171 58.7802 8.22326 60.0904 7.26617C60.7917 6.75542 61.4327 5.94558 62.0737 5.15414C62.8031 4.24767 63.5024 4.08662 64.2499 5.09892C64.8668 5.93177 65.5882 5.85355 66.2775 5.95018C68.2487 6.22626 70.216 5.6787 72.1852 5.72931C72.5128 5.73851 72.8403 5.83053 73.1658 5.89495C73.3105 5.92256 73.4874 5.91336 73.4994 6.3597C73.5115 6.77842 73.3366 6.89807 73.202 6.98549C72.6575 7.3306 72.1109 7.67109 71.5603 7.96557C69.9728 8.80303 68.3693 9.35059 66.5307 9.30458H66.5407Z" fill="#E80000"/>
</g>
<defs>
<clipPath id="clip0_2_1072">
<rect width="73" height="11" fill="white" transform="translate(0.5)"/>
</clipPath>
</defs>
</svg>
