<svg width="143" height="11" viewBox="0 0 143 11" fill="none" xmlns="http://www.w3.org/2000/svg">
<g clip-path="url(#clip0_2_1070)">
<path d="M128.963 9.30458C127.118 9.31838 124.878 9.30458 122.838 7.93797C122.384 7.63428 121.943 7.88275 121.52 8.12663C120.563 8.67879 119.621 9.26317 118.647 9.76932C114.606 11.8722 110.877 11.3338 107.609 7.74011C106.796 6.84284 106.276 6.83364 105.397 7.66649C101.547 11.297 98.3649 11.4948 94.1199 8.52694C93.2952 7.95177 92.4509 7.40421 91.6809 6.73701C90.4027 5.62808 89.148 5.70171 87.7994 6.53916C86.0991 7.58827 84.3324 8.44412 82.4953 9.12052C79.1337 10.3629 76.1982 9.52085 73.5754 6.85205C73.3605 6.63118 73.1298 6.43333 72.9305 6.19406C72.1956 5.29218 71.5585 5.18175 70.6868 6.12963C68.8458 8.13123 66.7585 9.56226 64.0927 9.33679C62.8967 9.23556 61.7983 8.79383 60.7234 8.25087C59.6446 7.70791 58.6126 7.0315 57.6589 6.23086C54.399 3.49304 54.7156 3.83354 51.4557 6.0376C48.5319 8.01619 45.4713 9.08832 42.0785 8.31989C39.9209 7.83214 38.1424 6.48394 36.4929 4.84125C34.8473 3.20776 34.773 3.23076 32.8499 4.44552C30.2936 6.06521 27.6551 7.32598 24.6727 7.28917C21.8702 7.25696 19.4741 6.21706 17.5392 3.74612C16.1203 1.93778 16.0617 1.94697 14.3849 3.41021C11.6526 5.79373 8.81486 7.92877 5.4064 8.66039C3.9797 8.96868 2.50999 9.11593 1.12238 8.3475C0.805769 8.17264 0.395361 7.97018 0.52435 7.46403C0.641613 7.01309 1.0755 7.13733 1.36475 7.19255C4.36278 7.75852 6.92692 6.3643 9.44417 4.75382C11.0429 3.72771 12.4031 2.29668 13.8924 1.09572C15.7881 -0.436539 16.9647 -0.431938 18.4891 1.55586C21.4168 5.375 24.9112 5.31978 28.6519 3.91176C30.0786 3.3734 31.3607 2.45313 32.6818 1.63409C34.3509 0.598777 35.8792 0.718412 37.2942 2.23687C37.5561 2.51755 37.8492 2.76142 38.115 3.0375C41.4688 6.50694 45.1704 6.81983 49.1065 4.64338C50.1658 4.059 51.1625 3.32739 52.1788 2.63718C53.9182 1.46383 55.5872 1.46844 57.2719 2.84425C58.7885 4.07742 60.313 5.31059 62.0446 6.12043C64.2413 7.15114 66.2817 6.94408 68.1461 5.15874C68.6699 4.65719 69.182 4.14183 69.6901 3.62187C71.1285 2.16784 72.2855 2.09421 73.8217 3.378C74.5448 3.98078 75.2523 4.61577 75.9871 5.20475C77.3748 6.32288 78.8835 6.68639 80.5487 6.27227C81.8816 5.94097 83.1441 5.41641 84.3715 4.74461C85.1102 4.33969 85.8607 3.94857 86.5799 3.49303C89.0307 1.93777 91.333 2.23686 93.5805 4.10042C94.5655 4.91486 95.6326 5.59587 96.6919 6.27227C98.7987 7.62047 100.851 7.43643 102.813 5.83515C103.485 5.28758 104.134 4.7032 104.814 4.16944C105.948 3.28137 107.078 3.29057 108.172 4.27067C108.653 4.6986 109.126 5.14033 109.575 5.61428C111.588 7.72171 113.867 8.22326 116.416 7.26617C117.78 6.75542 119.027 5.94558 120.274 5.15414C121.692 4.24767 123.053 4.08662 124.507 5.09892C125.707 5.93177 127.11 5.85355 128.451 5.95018C132.285 6.22626 136.112 5.6787 139.942 5.72931C140.58 5.73851 141.217 5.83053 141.85 5.89495C142.131 5.92256 142.475 5.91336 142.499 6.3597C142.522 6.77842 142.182 6.89807 141.92 6.98549C140.861 7.3306 139.798 7.67109 138.727 7.96557C135.639 8.80303 132.52 9.35059 128.943 9.30458H128.963Z" fill="#E80000"/>
</g>
<defs>
<clipPath id="clip0_2_1070">
<rect width="142" height="11" fill="white" transform="translate(0.5)"/>
</clipPath>
</defs>
</svg>
