<svg width="219" height="11" viewBox="0 0 219 11" fill="none" xmlns="http://www.w3.org/2000/svg">
<g clip-path="url(#clip0_2_1074)">
<mask id="mask0_2_1074" style="mask-type:luminance" maskUnits="userSpaceOnUse" x="0" y="0" width="219" height="11">
<path d="M218.5 0H0.5V11H218.5V0Z" fill="white"/>
</mask>
<g mask="url(#mask0_2_1074)">
<path d="M197.717 9.30458C194.885 9.31838 191.447 9.30458 188.314 7.93797C187.618 7.63428 186.94 7.88275 186.292 8.12663C184.822 8.67879 183.376 9.26317 181.881 9.76932C175.677 11.8722 169.952 11.3338 164.935 7.74011C163.687 6.84284 162.889 6.83364 161.539 7.66649C155.628 11.297 150.743 11.4948 144.226 8.52694C142.96 7.95177 141.664 7.40421 140.482 6.73701C138.52 5.62808 136.593 5.70171 134.523 6.53916C131.913 7.58827 129.2 8.44412 126.38 9.12052C121.219 10.3629 116.713 9.52085 112.686 6.85205C112.356 6.63118 112.002 6.43333 111.696 6.19406C110.568 5.29218 109.59 5.18175 108.252 6.12963C105.425 8.13123 102.221 9.56226 98.1283 9.33679C96.2921 9.23556 94.6058 8.79383 92.9556 8.25087C91.2994 7.70791 89.7152 7.0315 88.251 6.23086C83.2463 3.49304 83.7324 3.83354 78.7277 6.0376C74.2391 8.01619 69.5405 9.08832 64.3318 8.31989C61.0194 7.83214 58.289 6.48394 55.7567 4.84125C53.2304 3.20776 53.1163 3.23076 50.164 4.44552C46.2394 6.06521 42.1889 7.32598 37.6103 7.28917C33.3077 7.25696 29.6292 6.21706 26.6588 3.74612C24.4805 1.93778 24.3905 1.94697 21.8162 3.41021C17.6217 5.79373 13.2651 7.92877 8.03237 8.66039C5.84208 8.96868 3.58577 9.11593 1.45548 8.3475C0.969421 8.17264 0.339356 7.97018 0.537383 7.46403C0.717406 7.01309 1.38351 7.13733 1.82757 7.19255C6.43018 7.75852 10.3667 6.3643 14.2312 4.75382C16.6855 3.72771 18.7738 2.29668 21.0601 1.09572C23.9705 -0.436539 25.7767 -0.431938 28.117 1.55586C32.6116 5.375 37.9763 5.31978 43.7191 3.91176C45.9094 3.3734 47.8777 2.45313 49.9059 1.63409C52.4683 0.598777 54.8146 0.718412 56.9869 2.23687C57.3889 2.51755 57.8389 2.76142 58.247 3.0375C63.3957 6.50694 69.0784 6.81983 75.1212 4.64338C76.7474 4.059 78.2777 3.32739 79.8379 2.63718C82.5082 1.46383 85.0706 1.46844 87.6569 2.84425C89.9852 4.07742 92.3255 5.31059 94.9839 6.12043C98.3563 7.15114 101.489 6.94408 104.351 5.15874C105.155 4.65719 105.941 4.14183 106.721 3.62187C108.93 2.16784 110.706 2.09421 113.064 3.378C114.174 3.98078 115.261 4.61577 116.389 5.20475C118.519 6.32288 120.835 6.68639 123.392 6.27227C125.438 5.94097 127.376 5.41641 129.26 4.74461C130.395 4.33969 131.547 3.94857 132.651 3.49303C136.413 1.93777 139.948 2.23686 143.398 4.10042C144.91 4.91486 146.549 5.59587 148.175 6.27227C151.409 7.62047 154.56 7.43643 157.572 5.83515C158.604 5.28758 159.6 4.7032 160.645 4.16944C162.385 3.28137 164.119 3.29057 165.799 4.27067C166.537 4.6986 167.263 5.14033 167.954 5.61428C171.044 7.72171 174.542 8.22326 178.455 7.26617C180.549 6.75542 182.463 5.94558 184.378 5.15414C186.556 4.24767 188.644 4.08662 190.877 5.09892C192.719 5.93177 194.873 5.85355 196.931 5.95018C202.818 6.22626 208.693 5.6787 214.574 5.72931C215.552 5.73851 216.53 5.83053 217.502 5.89495C217.934 5.92256 218.462 5.91336 218.498 6.3597C218.534 6.77842 218.012 6.89807 217.61 6.98549C215.984 7.3306 214.352 7.67109 212.707 7.96557C207.967 8.80303 203.178 9.35059 197.687 9.30458H197.717Z" fill="#E80000"/>
</g>
</g>
<defs>
<clipPath id="clip0_2_1074">
<rect width="218" height="11" fill="white" transform="translate(0.5)"/>
</clipPath>
</defs>
</svg>
