<svg width="14" height="13" viewBox="0 0 14 13" fill="none" xmlns="http://www.w3.org/2000/svg">
<path d="M12.8125 9.0625C13.5156 9.76562 13.5156 10.5391 12.8125 11.3828C12.5312 11.7109 12.25 11.957 11.9688 12.1211C11.7109 12.2852 11.4883 12.3789 11.3008 12.4023C11.1367 12.4258 10.8906 12.4375 10.5625 12.4375C9.64843 12.4375 8.55858 11.9688 7.29296 11.0312C6.28515 10.3047 5.37108 9.51953 4.55077 8.67578C3.49608 7.57422 2.5703 6.32031 1.77343 4.91406C1.0703 3.60156 0.859368 2.52344 1.14061 1.67969C1.28124 1.23438 1.60937 0.847656 2.12499 0.519531L2.16015 0.484375C2.58202 0.203125 2.95702 0.0625 3.28515 0.0625C3.73046 0.0625 4.1289 0.273438 4.48046 0.695312L4.51561 0.730469C5.05468 1.43359 5.42968 1.98438 5.64061 2.38281C5.99218 3.10938 5.98046 3.73047 5.60546 4.24609C5.32421 4.62109 5.18358 4.89062 5.18358 5.05469C5.18358 5.125 5.33593 5.33594 5.64061 5.6875L5.67577 5.72266C6.23827 6.35547 6.54296 6.69531 6.58983 6.74219C6.61327 6.74219 6.63671 6.75391 6.66015 6.77734C6.68358 6.80078 6.70702 6.82422 6.73046 6.84766L6.80077 6.91797C7.26952 7.38672 7.60937 7.71484 7.8203 7.90234L7.85546 7.9375C8.0664 8.125 8.20702 8.21875 8.27733 8.21875C8.39452 8.21875 8.73437 8.04297 9.29687 7.69141C9.46093 7.57422 9.66015 7.51562 9.89452 7.51562C10.3164 7.51562 10.8203 7.69141 11.4062 8.04297C12.0156 8.39453 12.4844 8.73438 12.8125 9.0625Z" fill="white"/>
</svg>
