<?xml version="1.0" encoding="UTF-8"?>
<svg id="Layer_1" data-name="Layer 1" xmlns="http://www.w3.org/2000/svg" width="64" height="64" viewBox="0 0 64 64">
  <defs>
    <style>
      .cls-1 {
        fill: #e80000;
      }

      .cls-2 {
        fill: #00519b;
      }
    </style>
  </defs>
  <g>
    <path class="cls-1" d="M55.04,17.48c-.15-3.92-3.22-6.48-7.64-6.31l-10.82.42,4.19,5.07,5.67-.21c1.7-.06,2.76.6,2.8,1.7.06,1.76-1.91,3.63-4.05,3.7l-8.68.33-3.96,5.38,10.38-.39,5.52,8.57,3.57-.33,4.17,1.64-7.31-10.75c3.76-1.45,6.31-4.8,6.17-8.8h-.02Z"/>
    <path class="cls-2" d="M18.55,28.54l.25-1.89-3.05,3.61,2.1,3.43.25-1.89,12.89-.56-10.55,6.93-4.42.21c-4.19.17-7.51-3.51-6.95-7.68l.12-.95h0l1.45-10.5c.54-3.9,3.78-6.85,7.72-7l15.11-.56.23-1.74,6.71,7.99-20.53.77.25-1.89-3.05,3.61,2.1,3.43.25-1.89,16.4-.6-5.27,6.71-12.02.46.02.02Z"/>
  </g>
  <path class="cls-2" d="M63.03,53.56h-1.29V9.28C43.23-1.39,21.6-1.41,2.27,9.24v42.24H.99V8.47l.33-.19C11.03,2.86,21.75,0,32.25,0h.02c10.71,0,20.95,2.8,30.43,8.35l.31.19v45.03h.02Z"/>
  <g>
    <polygon class="cls-2" points="63.03 40.65 63.03 42.58 58.49 41.56 56 39.5 60.13 38.96 63.03 40.65"/>
    <path class="cls-2" d="M63.03,45.4l-9.2-4.88-4.26-2.24,1.93-.25-.42-1.35-3.03-.48h4.5l2.62,1.85,4.13.46-6.89-4.01-3.28.93-5.19-1.91-6-.52-6.08-2.86-4.55,2.49-2.12,1.97-2.55.81-7.62,6.08-8.24-1.35-2.51,1.76-1.72,1.91-1.6.48v1.66l2.2-1.41,3.78-3.51-.73,2.28-3.94,3.86-1.31,3.05v13.76h62.05v-13.35l-7.6-3.2-8.05-7.62-11.71,4.44-1.99-1.54,1.58.25,12.12-3.99,7.33,5.56-.56-1.41,5.13,4.05-1.04-1.66,4.8,2.68v-2.82h.02ZM43.67,34.09l-3.51,1.99-.75-.79-2.51-1.22h6.77v.02ZM2.67,48.24l6.1-5.65,13.53,5.17-6.14-.87-3.59.85-2.35-2.99-1.2,3.61-2.01-2.03-5.17,3.86.85-1.99-.02.04ZM33.74,45.15l-1.95,2.03,5.46-2.41,1.76.04,6.12-2.26-3.16,3.01-3.59,1.81-.54,3.01-1.04,2.89,4.71-4.21,5.77-6.83-.21,2.78-.79,2.89,2.68-.31-.33,2.41,1.45,2.14.27,2.3,2.12-3.84-1.31-5.67,3.36,3.99,1.95,4.34,4.5,2.14-7.85-.58-1.33,2.37-3.72,1.27-.15-1.85-1.89-1.22-.89-2.03-3.61,2.14-2.28-.19-7.87-.79,1.6-1.62-2.28-.48-1.14-1.7-5.02,1.81,2.14-3.65-1.85-2.06,1.95-1.31-3.11-2.84,3.28-.52-4.19-.95-3.03,2.14,2.33,2.84-4.8-1.66-5.58-1.85h3.61l5.4-4.01,4.34-2.97-1.58,4.03,1.25.66,5-1.35,4.01,6.19.02-.04ZM39.76,38.28l-7.76-1.83-1.74-2.37-4.23.87,6.37-3.67.37,2.2.93.79.39,1.37,5.77,1.52h7.45l-7.51,1.12h-.04Z"/>
  </g>
</svg>