<svg xmlns="http://www.w3.org/2000/svg" width="7.227" height="7.227" viewBox="0 0 7.227 7.227">
  <path id="Icon_metro-cross" data-name="Icon metro-cross" d="M9.731,7.734h0L7.539,5.541,9.731,3.349h0a.226.226,0,0,0,0-.319L8.7,1.994a.226.226,0,0,0-.319,0h0L6.184,4.186,3.992,1.994h0a.226.226,0,0,0-.319,0L2.637,3.03a.226.226,0,0,0,0,.319h0L4.829,5.541,2.637,7.734h0a.226.226,0,0,0,0,.319L3.672,9.089a.226.226,0,0,0,.319,0h0L6.184,6.9,8.376,9.089h0a.226.226,0,0,0,.319,0L9.731,8.053a.226.226,0,0,0,0-.319Z" transform="translate(-2.571 -1.928)" fill="#000000"/>
</svg>
