<?xml version="1.0" encoding="UTF-8"?>
<svg id="Layer_1" data-name="Layer 1" xmlns="http://www.w3.org/2000/svg" width="87.13" height="30.84" viewBox="0 0 87.13 30.84">
  <defs>
    <style>
      .cls-1 {
        fill: #e80000;
      }

      .cls-2 {
        fill: #00519b;
      }
    </style>
  </defs>
  <g>
    <path class="cls-1" d="M26.04,8.42c-.07-1.89-1.55-3.12-3.68-3.04l-5.21.2,2.02,2.44,2.73-.1c.82-.03,1.33.29,1.35.82.03.85-.92,1.75-1.95,1.78l-4.18.16-1.91,2.59,5-.19,2.66,4.13,1.72-.16,2.01.79-3.52-5.18c1.81-.7,3.04-2.31,2.97-4.24h0Z"/>
    <path class="cls-2" d="M8.46,13.75l.12-.91-1.47,1.74,1.01,1.65.12-.91,6.21-.27-5.08,3.34-2.13.1c-2.02.08-3.62-1.69-3.35-3.7l.06-.46h0s.7-5.06.7-5.06c.26-1.88,1.82-3.3,3.72-3.37l7.28-.27.11-.84,3.23,3.85-9.89.37.12-.91-1.47,1.74,1.01,1.65.12-.91,7.9-.29-2.54,3.23-5.79.22Z"/>
  </g>
  <path class="cls-2" d="M29.89,25.8h-.62V4.47C20.35-.67,9.93-.68.62,4.45v20.35h-.62V4.08l.16-.09C4.84,1.38,10,0,15.06,0h.01c5.16,0,10.09,1.35,14.66,4.02l.15.09v21.69Z"/>
  <g>
    <polygon class="cls-2" points="29.89 19.58 29.89 20.51 27.7 20.02 26.5 19.03 28.49 18.77 29.89 19.58"/>
    <path class="cls-2" d="M29.89,21.87l-4.43-2.35-2.05-1.08.93-.12-.2-.65-1.46-.23h2.17l1.26.89,1.99.22-3.32-1.93-1.58.45-2.5-.92-2.89-.25-2.93-1.38-2.19,1.2-1.02.95-1.23.39-3.67,2.93-3.97-.65-1.21.85-.83.92-.77.23v.8l1.06-.68,1.82-1.69-.35,1.1-1.9,1.86-.63,1.47v6.63h29.81s.08,0,.08,0v-6.43l-3.66-1.54-3.88-3.67-5.64,2.14-.96-.74.76.12,5.84-1.92,3.53,2.68-.27-.68,2.47,1.95-.5-.8,2.31,1.29v-1.36ZM20.56,16.42l-1.69.96-.36-.38-1.21-.59h3.26ZM.81,23.24l2.94-2.72,6.52,2.49-2.96-.42-1.73.41-1.13-1.44-.58,1.74-.97-.98-2.49,1.86.41-.96ZM15.78,21.75l-.94.98,2.63-1.16.85.02,2.95-1.09-1.52,1.45-1.73.87-.26,1.45-.5,1.39,2.27-2.03,2.78-3.29-.1,1.34-.38,1.39,1.29-.15-.16,1.16.7,1.03.13,1.11,1.02-1.85-.63-2.73,1.62,1.92.94,2.09,2.17,1.03-3.78-.28-.64,1.14-1.79.61-.07-.89-.91-.59-.43-.98-1.74,1.03-1.1-.09-3.79-.38.77-.78-1.1-.23-.55-.82-2.42.87,1.03-1.76-.89-.99.94-.63-1.5-1.37,1.58-.25-2.02-.46-1.46,1.03,1.12,1.37-2.31-.8-2.69-.89h1.74l2.6-1.93,2.09-1.43-.76,1.94.6.32,2.41-.65,1.93,2.98ZM18.68,18.44l-3.74-.88-.84-1.14-2.04.42,3.07-1.77.18,1.06.45.38.19.66,2.78.73h3.59l-3.62.54Z"/>
  </g>
  <g>
    <path class="cls-1" d="M42.09,15.88h-6.95V5.43h6.95v1.89h-4.82v2.39h4.67v1.88h-4.67v2.39h4.82v1.89Z"/>
    <path class="cls-1" d="M46.81,13.85l2.07-5.67h2.03l-3.04,7.7h-2.27l-3.04-7.7h2.18l2.07,5.67Z"/>
    <path class="cls-1" d="M54.92,8.03c1.29,0,2.33.47,3.11,1.39.78.93,1.07,2.04.86,3.32h-5.94c.14.47.4.84.77,1.13.37.28.82.43,1.34.43.88,0,1.51-.36,1.91-1.07l1.66.75c-.35.63-.84,1.13-1.47,1.5-.63.37-1.35.56-2.16.56-1.17,0-2.15-.38-2.94-1.15-.79-.77-1.18-1.72-1.18-2.85s.39-2.08,1.16-2.85c.78-.77,1.74-1.15,2.88-1.15ZM54.92,9.76c-.45,0-.85.13-1.2.4-.35.26-.6.61-.74,1.05h3.89c-.14-.44-.38-.79-.73-1.05-.35-.26-.76-.4-1.22-.4Z"/>
    <path class="cls-1" d="M62.29,8.18v1c.34-.47.77-.8,1.28-.99.52-.19,1.05-.21,1.6-.04v1.91c-.81-.28-1.49-.27-2.04.04-.56.3-.84.79-.84,1.47v4.31h-2.01v-7.7h2.01Z"/>
    <path class="cls-1" d="M69.44,8.03c1.29,0,2.33.47,3.11,1.39.78.93,1.07,2.04.86,3.32h-5.94c.14.47.4.84.77,1.13.37.28.82.43,1.34.43.88,0,1.51-.36,1.91-1.07l1.66.75c-.35.63-.84,1.13-1.47,1.5-.63.37-1.35.56-2.16.56-1.17,0-2.15-.38-2.94-1.15-.79-.77-1.18-1.72-1.18-2.85s.39-2.08,1.16-2.85c.78-.77,1.74-1.15,2.88-1.15ZM69.44,9.76c-.45,0-.85.13-1.2.4-.35.26-.6.61-.74,1.05h3.89c-.14-.44-.38-.79-.73-1.05-.35-.26-.76-.4-1.22-.4Z"/>
    <path class="cls-1" d="M74.35,13.8l2.01-.42c.09.7.55,1.04,1.37,1.04.41,0,.74-.08.98-.23.25-.15.37-.35.37-.57s-.11-.39-.34-.52c-.22-.13-.5-.21-.84-.25-.33-.04-.7-.1-1.09-.19-.39-.09-.76-.2-1.09-.33-.33-.13-.61-.35-.84-.67-.22-.32-.34-.72-.34-1.19,0-.7.3-1.28.9-1.74.6-.46,1.36-.69,2.26-.69s1.65.2,2.24.6c.59.4.93.94,1.04,1.62l-2,.42c-.1-.7-.53-1.04-1.28-1.04-.33,0-.6.07-.81.21-.21.14-.32.32-.32.54s.11.41.34.54c.22.13.5.21.84.25.33.04.7.11,1.09.2.39.09.76.21,1.09.34.33.13.61.36.84.68.22.32.34.73.34,1.22,0,.69-.33,1.26-.98,1.73-.66.47-1.46.7-2.4.7s-1.72-.2-2.32-.6c-.6-.4-.96-.94-1.07-1.62Z"/>
    <path class="cls-1" d="M83.12,9.95h-1.55v-1.78h1.55v-2.27l2.01-.63v2.89h2v1.78h-2v3.06c0,.73.36,1.09,1.09,1.09h.91v1.78h-.91c-1.05,0-1.83-.25-2.34-.74-.51-.49-.76-1.24-.76-2.25v-2.94Z"/>
    <path class="cls-2" d="M41,25.11l2.6,3.92h-2.54l-2.45-3.71h-1.34v3.71h-2.13v-10.44h4.49c1.1,0,1.99.32,2.67.95.68.63,1.01,1.43,1.01,2.41,0,.75-.21,1.4-.62,1.97-.41.57-.98.96-1.69,1.19ZM39.63,20.49h-2.36v2.88h2.36c.45,0,.81-.13,1.08-.4.27-.27.41-.61.41-1.03s-.14-.76-.41-1.04c-.27-.27-.63-.41-1.08-.41Z"/>
    <path class="cls-2" d="M48,21.19c1.29,0,2.33.47,3.11,1.39.78.93,1.07,2.04.86,3.32h-5.94c.14.47.4.84.77,1.13.37.28.82.43,1.34.43.88,0,1.51-.36,1.91-1.07l1.66.75c-.35.63-.84,1.13-1.47,1.5-.63.37-1.35.56-2.16.56-1.17,0-2.15-.38-2.94-1.15-.79-.77-1.18-1.72-1.18-2.85s.39-2.08,1.16-2.85c.78-.77,1.74-1.15,2.88-1.15ZM48,22.92c-.45,0-.85.13-1.2.4-.35.26-.6.61-.74,1.05h3.89c-.14-.44-.38-.79-.73-1.05-.35-.26-.76-.4-1.22-.4Z"/>
    <path class="cls-2" d="M62.14,21.19c.9,0,1.64.3,2.21.9.57.6.85,1.36.85,2.28v4.67h-2.01v-4.31c0-.5-.14-.9-.41-1.22-.27-.32-.62-.48-1.05-.48s-.76.16-1.04.48c-.27.32-.41.73-.41,1.22v4.31h-2.01v-4.31c0-.5-.13-.9-.4-1.22-.27-.32-.62-.48-1.04-.48s-.76.16-1.04.48c-.27.32-.41.73-.41,1.22v4.31h-2.01v-7.7h2.01v.93c.56-.72,1.26-1.07,2.1-1.07.98,0,1.75.41,2.28,1.24.59-.83,1.38-1.24,2.39-1.24Z"/>
    <path class="cls-2" d="M66.53,19.2c0-.34.12-.62.36-.86.24-.23.53-.35.87-.35s.61.12.85.35c.24.23.36.52.36.86s-.12.61-.36.85c-.24.24-.52.36-.85.36s-.63-.12-.87-.36c-.24-.24-.36-.52-.36-.85ZM68.75,29.03h-2.01v-7.7h2.01v7.7Z"/>
    <path class="cls-2" d="M71.32,23.11h-1.55v-1.78h1.55v-2.27l2.01-.63v2.89h2v1.78h-2v3.06c0,.73.36,1.09,1.09,1.09h.91v1.78h-.91c-1.05,0-1.83-.25-2.34-.74-.51-.49-.76-1.24-.76-2.25v-2.94Z"/>
  </g>
</svg>